<svg xmlns="http://www.w3.org/2000/svg" version="1.1" xmlns:xlink="http://www.w3.org/1999/xlink" xmlns:svgjs="http://svgjs.dev/svgjs" width="1000" height="750" viewBox="0 0 1000 750"><rect width="1000" height="750" fill="#ca3433"></rect><g transform="matrix(0.584,0,0,0.584,207.9169461077845,82.91694610778441)"><svg viewBox="0 0 334 334" data-background-color="#ca3433" preserveAspectRatio="xMidYMid meet" height="1000" width="1000" xmlns="http://www.w3.org/2000/svg" xmlns:xlink="http://www.w3.org/1999/xlink"><g id="tight-bounds" transform="matrix(1,0,0,1,0.04749999999998522,0.04750000000001364)"><svg viewBox="0 0 333.90454557049503 333.90454557049503" height="333.90454557049503" width="333.90454557049503"><g><svg></svg></g><g><svg viewBox="0 0 333.90454557049503 333.90454557049503" height="333.90454557049503" width="333.90454557049503"><g><path d="M0 166.952c0-92.205 74.747-166.952 166.952-166.952 92.205 0 166.952 74.747 166.953 166.952 0 92.205-74.747 166.952-166.953 166.953-92.205 0-166.952-74.747-166.952-166.953zM166.952 316.63c82.665 0 149.677-67.013 149.678-149.678 0-82.665-67.013-149.677-149.678-149.677-82.665 0-149.677 67.013-149.677 149.677 0 82.665 67.013 149.677 149.677 149.678z" data-fill-palette-color="tertiary" fill="#ffffff" stroke="transparent"></path><ellipse rx="160.27418187383762" ry="160.27418187383762" cx="166.95227278524752" cy="166.95227278524752" fill="#ffffff" stroke="transparent" stroke-width="0" fill-opacity="1" data-fill-palette-color="tertiary"></ellipse></g><g transform="matrix(1,0,0,1,87.5884710020415,71.17305217166896)"><svg viewBox="0 0 158.72760356641203 191.55844122715712" height="191.55844122715712" width="158.72760356641203"><g><svg viewBox="0 0 158.72760356641203 191.55844122715712" height="191.55844122715712" width="158.72760356641203"><g><svg viewBox="0 0 158.72760356641203 191.55844122715712" height="191.55844122715712" width="158.72760356641203"><g><svg viewBox="0 0 158.72760356641203 191.55844122715712" height="191.55844122715712" width="158.72760356641203"><g id="textblocktransform"><svg viewBox="0 0 158.72760356641203 191.55844122715712" height="191.55844122715712" width="158.72760356641203" id="textblock"><g><svg viewBox="0 0 158.72760356641203 191.55844122715712" height="191.55844122715712" width="158.72760356641203"><g transform="matrix(1,0,0,1,0,0)"><svg width="158.72760356641203" viewBox="5.4 -35.3 29.25 35.3" height="191.55844122715712" data-palette-color="#ca3433"><path d="M20-35.3Q26.8-35.3 30.73-31.33 34.65-27.35 34.65-19.85L34.65-19.85 34.65 0 31 0 31-10.3 9-10.3 9 0 5.4 0 5.4-19.85Q5.4-27.35 9.33-31.33 13.25-35.3 20-35.3L20-35.3ZM9-13.5L31-13.5 31-20.2Q31-26.05 28.1-29.03 25.2-32 20-32L20-32Q14.8-32 11.9-29.03 9-26.05 9-20.2L9-20.2 9-13.5Z" opacity="1" transform="matrix(1,0,0,1,0,0)" fill="#ca3433" class="undefined-text-0" data-fill-palette-color="quaternary" id="text-0"></path></svg></g></svg></g></svg></g></svg></g><g></g></svg></g></svg></g></svg></g></svg></g><defs></defs></svg><rect width="333.90454557049503" height="333.90454557049503" fill="none" stroke="none" visibility="hidden"></rect></g></svg></g></svg>